<?xml version="1.0" encoding="utf-8"?>
<!-- Generator: Adobe Illustrator 22.0.0, SVG Export Plug-In . SVG Version: 6.00 Build 0)  -->
<svg version="1.1" id="Capa_1" xmlns="http://www.w3.org/2000/svg" xmlns:xlink="http://www.w3.org/1999/xlink" x="0px" y="0px"
	 viewBox="0 0 294.4 281.8" style="enable-background:new 0 0 294.4 281.8;" xml:space="preserve">
<style type="text/css">
	.st0{fill:#912222;}
	.st1{fill:#26C281;}
	.st2{fill:#9ACCA2;}
	.st3{fill:#E2DA44;}
	.st4{fill:#DDE0A6;}
	.st5{fill:#5D8CAE;}
	.st6{fill:#D1CEED;}
</style>
<circle cx="67.5" cy="67.6" r="50"/>
<path class="st0" d="M79.5,19.3H55.6V6.2c0-3.3,2.7-6,6-6h11.8c3.3,0,6,2.7,6,6V19.3z"/>
<path class="st0" d="M115.8,79.5V55.7H129c3.3,0,6,2.7,6,6v11.8c0,3.3-2.7,6-6,6H115.8z"/>
<path class="st0" d="M55.6,115.7h23.8v13.2c0,3.3-2.7,6-6,6H61.6c-3.3,0-6-2.7-6-6V115.7z"/>
<path class="st0" d="M19.5,55.7v23.8H6.4c-3.3,0-6-2.7-6-6V61.7c0-3.3,2.7-6,6-6H19.5z"/>
<path class="st0" d="M41.9,25.1L25,42l-9.3-9.3c-2.3-2.3-2.3-6.1,0-8.5l8.4-8.4c2.3-2.3,6.1-2.3,8.5,0L41.9,25.1z"/>
<path class="st0" d="M110.1,42L93.2,25.1l9.3-9.3c2.3-2.3,6.1-2.3,8.5,0l8.4,8.4c2.3,2.3,2.3,6.1,0,8.5L110.1,42z"/>
<path class="st0" d="M93.1,110.1L110,93.2l9.3,9.3c2.3,2.3,2.3,6.1,0,8.5l-8.4,8.4c-2.3,2.3-6.1,2.3-8.5,0L93.1,110.1z"/>
<path class="st0" d="M25.2,93.2L42,110l-9.3,9.3c-2.3,2.3-6.1,2.3-8.5,0l-8.4-8.4c-2.3-2.3-2.3-6.1,0-8.5L25.2,93.2z"/>
<path class="st1" d="M135,211.7l-1.5-11.7c-0.4-3.3-3.4-5.6-6.7-5.2l-12.8,1.6c-1.8-4.8-4.4-9.2-7.5-13.1l7.9-10.1
	c2-2.6,1.6-6.4-1.1-8.4l-9.4-7.2c-2.6-2-6.4-1.6-8.4,1.1l-7.8,10.1c-4.6-2.1-9.5-3.4-14.7-4l-1.6-12.8c-0.4-3.3-3.4-5.6-6.7-5.2
	l-11.7,1.5c-3.3,0.4-5.6,3.4-5.2,6.7l1.6,12.8c-4.8,1.8-9.3,4.4-13.2,7.5l-10.1-7.8c-2.6-2-6.4-1.6-8.4,1.1l-7.2,9.4
	c-2,2.6-1.6,6.4,1.1,8.4l10.1,7.9c-2,4.6-3.4,9.5-4,14.6l-12.5,1.6c-3.3,0.4-5.6,3.4-5.2,6.7l1.5,11.7c0.4,3.3,3.4,5.6,6.7,5.2
	l12.5-1.6c1.8,4.8,4.4,9.3,7.5,13.2l-7.7,10c-2,2.6-1.6,6.4,1.1,8.4l9.4,7.2c2.6,2,6.4,1.6,8.4-1.1l7.7-10c4.6,2,9.5,3.4,14.6,4
	l1.6,12.6c0.4,3.3,3.4,5.6,6.7,5.2l11.7-1.5c3.3-0.4,5.6-3.4,5.2-6.7L85.4,261c4.8-1.8,9.2-4.4,13.1-7.5l10.1,7.8
	c2.6,2,6.4,1.6,8.4-1.1l7.2-9.4c2-2.6,1.6-6.4-1.1-8.4l-10.1-7.8c2.1-4.6,3.4-9.5,4-14.7l12.8-1.6C133.1,218,135.5,215,135,211.7z
	 M67.5,229.2c-8.3,0-15-6.7-15-15c0-8.3,6.7-15,15-15c8.3,0,15,6.7,15,15C82.5,222.5,75.8,229.2,67.5,229.2z"/>
<path class="st2" d="M70.2,240.4c14.5-1.4,25-14.3,23.6-28.8c-1.4-14.5-14.3-25-28.8-23.6s-25,14.3-23.6,28.8
	C42.8,231.3,55.7,241.8,70.2,240.4z M66.1,199.3c8.2-0.8,15.6,5.2,16.4,13.4c0.8,8.2-5.2,15.6-13.4,16.4
	c-8.2,0.8-15.6-5.2-16.4-13.4C51.8,207.5,57.8,200.1,66.1,199.3z"/>
<path class="st3" d="M286.3,65l-1.5-11.7c-0.4-3.3-3.4-5.6-6.7-5.2l-12.8,1.6c-1.8-4.8-4.4-9.2-7.5-13.1l7.9-10.1
	c2-2.6,1.6-6.4-1.1-8.4l-9.4-7.2c-2.6-2-6.4-1.6-8.4,1.1L239.1,22c-4.6-2.1-9.5-3.4-14.7-4l-1.6-12.8c-0.4-3.3-3.4-5.6-6.7-5.2
	l-11.7,1.5c-3.3,0.4-5.6,3.4-5.2,6.7l1.6,12.8c-4.8,1.8-9.3,4.4-13.2,7.5l-10.1-7.8c-2.6-2-6.4-1.6-8.4,1.1l-7.2,9.4
	c-2,2.6-1.6,6.4,1.1,8.4l10.1,7.9c-2,4.6-3.4,9.5-4,14.6l-12.5,1.6c-3.3,0.4-5.6,3.4-5.2,6.7l1.5,11.7c0.4,3.3,3.4,5.6,6.7,5.2
	l12.5-1.6c1.8,4.8,4.4,9.3,7.5,13.2l-7.7,10c-2,2.6-1.6,6.4,1.1,8.4l9.4,7.2c2.6,2,6.4,1.6,8.4-1.1l7.7-10c4.6,2,9.5,3.4,14.6,4
	l1.6,12.6c0.4,3.3,3.4,5.6,6.7,5.2l11.7-1.5c3.3-0.4,5.6-3.4,5.2-6.7l-1.6-12.6c4.8-1.8,9.2-4.4,13.1-7.5l10.1,7.8
	c2.6,2,6.4,1.6,8.4-1.1l7.2-9.4c2-2.6,1.6-6.4-1.1-8.4L264.4,88c2.1-4.6,3.4-9.5,4-14.7l12.8-1.6C284.4,71.3,286.8,68.3,286.3,65z
	 M218.8,82.6c-8.3,0-15-6.7-15-15c0-8.3,6.7-15,15-15c8.3,0,15,6.7,15,15C233.8,75.9,227.1,82.6,218.8,82.6z"/>
<path class="st4" d="M221.4,93.8c14.5-1.4,25-14.3,23.6-28.8c-1.4-14.5-14.3-25-28.8-23.6c-14.5,1.4-25,14.3-23.6,28.8
	C194.1,84.7,207,95.2,221.4,93.8z M217.4,52.7c8.2-0.8,15.6,5.2,16.4,13.4c0.8,8.2-5.2,15.6-13.4,16.4c-8.2,0.8-15.6-5.2-16.4-13.4
	C203.1,60.8,209.1,53.5,217.4,52.7z"/>
<path class="st5" d="M294.3,204.3l-1.5-11.7c-0.4-3.3-3.4-5.6-6.7-5.2l-12.8,1.6c-1.8-4.8-4.4-9.2-7.5-13.1l7.9-10.1
	c2-2.6,1.6-6.4-1.1-8.4l-9.4-7.2c-2.6-2-6.4-1.6-8.4,1.1l-7.8,10.1c-4.6-2.1-9.5-3.4-14.7-4l-1.6-12.8c-0.4-3.3-3.4-5.6-6.7-5.2
	l-11.7,1.5c-3.3,0.4-5.6,3.4-5.2,6.7l1.6,12.8c-4.8,1.8-9.3,4.4-13.2,7.5l-10.1-7.8c-2.6-2-6.4-1.6-8.4,1.1l-7.2,9.4
	c-2,2.6-1.6,6.4,1.1,8.4l10.1,7.9c-2,4.6-3.4,9.5-4,14.6l-12.5,1.6c-3.3,0.4-5.6,3.4-5.2,6.7l1.5,11.7c0.4,3.3,3.4,5.6,6.7,5.2
	l12.5-1.6c1.8,4.8,4.4,9.3,7.5,13.2l-7.7,10c-2,2.6-1.6,6.4,1.1,8.4l9.4,7.2c2.6,2,6.4,1.6,8.4-1.1l7.7-10c4.6,2,9.5,3.4,14.6,4
	l1.6,12.6c0.4,3.3,3.4,5.6,6.7,5.2l11.7-1.5c3.3-0.4,5.6-3.4,5.2-6.7l-1.6-12.6c4.8-1.8,9.2-4.4,13.1-7.5l10.1,7.8
	c2.6,2,6.4,1.6,8.4-1.1l7.2-9.4c2-2.6,1.6-6.4-1.1-8.4l-10.1-7.8c2.1-4.6,3.4-9.5,4-14.7l12.8-1.6
	C292.4,210.6,294.7,207.6,294.3,204.3z M226.8,221.8c-8.3,0-15-6.7-15-15c0-8.3,6.7-15,15-15c8.3,0,15,6.7,15,15
	C241.8,215.1,235.1,221.8,226.8,221.8z"/>
<path class="st6" d="M229.4,233c14.5-1.4,25-14.3,23.6-28.8c-1.4-14.5-14.3-25-28.8-23.6s-25,14.3-23.6,28.8
	C202.1,223.9,215,234.4,229.4,233z M225.3,191.9c8.2-0.8,15.6,5.2,16.4,13.4c0.8,8.2-5.2,15.6-13.4,16.4
	c-8.2,0.8-15.6-5.2-16.4-13.4C211.1,200.1,217.1,192.7,225.3,191.9z"/>
</svg>
