<svg xmlns="http://www.w3.org/2000/svg" viewBox="0 0 135.1 135.19"><defs><style>.cls-1{fill:#e2da44;}.cls-2{fill:#dde0a6;}</style></defs><title>gear-connector</title><g id="Layer_2" data-name="Layer 2"><g id="Capa_1" data-name="Capa 1"><path class="cls-1" d="M135.05,65l-1.49-11.73a6,6,0,0,0-6.71-5.2L114.1,49.73a49.71,49.71,0,0,0-7.49-13.12l7.85-10.14a6,6,0,0,0-1.07-8.42L104,10.81a6,6,0,0,0-8.42,1.07L87.78,22a49.56,49.56,0,0,0-14.65-4L71.5,5.24A6,6,0,0,0,64.8.05L53.06,1.54a6,6,0,0,0-5.2,6.71L49.48,21a49.84,49.84,0,0,0-13.19,7.54L26.17,20.7a6,6,0,0,0-8.41,1.07l-7.25,9.36a6,6,0,0,0,1.07,8.41l10.14,7.85a49.46,49.46,0,0,0-4,14.58L5.24,63.56A6,6,0,0,0,.05,70.27L1.54,82a6,6,0,0,0,6.71,5.2l12.51-1.59A49.47,49.47,0,0,0,28.29,98.8l-7.73,10a6,6,0,0,0,1.07,8.42L31,124.45a6,6,0,0,0,8.42-1.07l7.75-10a49.62,49.62,0,0,0,14.57,4l1.61,12.59a6,6,0,0,0,6.7,5.2l11.74-1.49a6,6,0,0,0,5.2-6.71l-1.6-12.6a49.68,49.68,0,0,0,13.12-7.48l10.07,7.8a6,6,0,0,0,8.42-1.07l7.25-9.36a6,6,0,0,0-1.07-8.41L113.1,88a49.93,49.93,0,0,0,4-14.66l12.75-1.62A6,6,0,0,0,135.05,65ZM67.55,82.59a15,15,0,1,1,15-15A15,15,0,0,1,67.55,82.59Z"/><path class="cls-2" d="M70.15,93.76A26.3,26.3,0,1,0,41.38,70.2,26.29,26.29,0,0,0,70.15,93.76ZM66.06,52.67A15,15,0,1,1,52.62,69.08,15,15,0,0,1,66.06,52.67Z"/></g></g></svg>