<?xml version="1.0" encoding="utf-8"?>
<!-- Generator: Adobe Illustrator 22.0.0, SVG Export Plug-In . SVG Version: 6.00 Build 0)  -->
<svg version="1.1" id="Layer_1" xmlns="http://www.w3.org/2000/svg" xmlns:xlink="http://www.w3.org/1999/xlink" x="0px" y="0px"
	 viewBox="0 0 53.9 51.2" style="enable-background:new 0 0 53.9 51.2;" xml:space="preserve">
<style type="text/css">
	.st0{fill:#F9F43A;}
</style>
<g>
	<path class="st0" d="M26.9,4.5l6.5,13.2l0.5,0.9l1,0.2L49.6,21L39,31.3L38.3,32l0.2,1l2.5,14.5l-13.1-6.9l-0.9-0.5L26,40.7
		l-13.1,6.9L15.4,33l0.2-1l-0.8-0.7L4.3,21l14.6-2.1l1-0.2l0.5-0.9L26.9,4.5 M26.9,0l-8.3,16.9L0,19.6l13.5,13.1l-3.2,18.5l16.6-8.8
		l16.6,8.8l-3.2-18.5l13.5-13.1l-18.6-2.7L26.9,0L26.9,0z"/>
</g>
</svg>
